<svg width="181" height="70" viewBox="0 0 181 70" fill="none" xmlns="http://www.w3.org/2000/svg">
<path d="M29.8211 31.72C28.6478 31.3733 27.6878 31.1067 26.9411 30.92C26.1944 30.7067 25.2344 30.6 24.0611 30.6C21.9011 30.6 20.2344 31.48 19.0611 33.24C17.8878 35 17.3011 37.4133 17.3011 40.48C17.3011 43.12 17.7944 45.4 18.7811 47.32C19.7678 49.24 21.4211 50.2 23.7411 50.2C24.8878 50.2 25.9544 50.08 26.9411 49.84C27.9544 49.6 28.8744 49.3067 29.7011 48.96L31.6611 52.8C30.6211 53.3333 29.3678 53.76 27.9011 54.08C26.4344 54.4 25.1411 54.56 24.0211 54.56C19.7811 54.56 16.7011 53.2 14.7811 50.48C12.8611 47.76 11.9011 44.44 11.9011 40.52C11.9011 36.3333 12.9544 32.9067 15.0611 30.24C17.1944 27.5733 20.2478 26.24 24.2211 26.24C25.0211 26.24 26.1278 26.3733 27.5411 26.64C28.9544 26.9067 30.2478 27.36 31.4211 28L29.8211 31.72ZM36.692 54V26.8H45.212C48.172 26.8 50.7054 27.48 52.812 28.84C54.9187 30.1733 55.972 32.4 55.972 35.52C55.9454 38.6133 54.7987 40.8933 52.532 42.36C50.292 43.8 47.732 44.52 44.852 44.52H41.852V54H36.692ZM45.052 31.12H41.852V40.24H45.132C46.6787 40.24 47.932 39.8933 48.892 39.2C49.852 38.48 50.3854 37.36 50.492 35.84C50.492 34.08 50.012 32.8533 49.052 32.16C48.092 31.4667 46.7587 31.12 45.052 31.12ZM66.1489 26.6V38.32H76.8689V26.8H82.0289V54H76.8689V42.48H66.1489V54H60.9889V26.8L66.1489 26.6ZM96.9223 45.08H86.4823L86.0423 41H96.5223L96.9223 45.08ZM118.871 54H100.911V26.8H106.071V49.96H118.071L118.871 54ZM132.19 33.92L128.63 43.4H135.83L132.19 33.92ZM134.51 26.8L145.07 53.28L139.87 54L137.43 47.6H127.11L124.71 54H119.51L130.11 26.8H134.51ZM158.844 26.8C161.484 26.8 163.631 27.3867 165.284 28.56C166.938 29.7067 167.764 31.6533 167.764 34.4C167.764 35.4133 167.524 36.3333 167.044 37.16C166.591 37.96 165.991 38.6533 165.244 39.24C166.471 39.88 167.471 40.7467 168.244 41.84C169.044 42.9333 169.444 44.32 169.444 46C169.444 48.5067 168.564 50.4667 166.804 51.88C165.071 53.2933 162.751 54 159.844 54H148.684V26.8H158.844ZM158.084 31.12H153.844V37.88H157.684C159.124 37.88 160.244 37.6133 161.044 37.08C161.871 36.52 162.284 35.6533 162.284 34.48C162.284 33.2 161.911 32.32 161.164 31.84C160.418 31.36 159.391 31.12 158.084 31.12ZM159.804 42.08H153.844V49.72H159.444C160.831 49.72 161.938 49.4 162.764 48.76C163.618 48.12 164.044 47.2133 164.044 46.04C164.044 44.76 163.658 43.7867 162.884 43.12C162.111 42.4267 161.084 42.08 159.804 42.08Z" fill="#FFF5C4"/>
<path d="M75.5322 17.374V12.4785C75.5322 12.1035 75.4561 11.7783 75.3037 11.5029C75.1572 11.2217 74.9346 11.0049 74.6357 10.8525C74.3369 10.7002 73.9678 10.624 73.5283 10.624C73.1182 10.624 72.7578 10.6943 72.4473 10.835C72.1426 10.9756 71.9023 11.1602 71.7266 11.3887C71.5566 11.6172 71.4717 11.8633 71.4717 12.127H69.8457C69.8457 11.7871 69.9336 11.4502 70.1094 11.1162C70.2852 10.7822 70.5371 10.4805 70.8652 10.2109C71.1992 9.93555 71.5977 9.71875 72.0605 9.56055C72.5293 9.39648 73.0508 9.31445 73.625 9.31445C74.3164 9.31445 74.9258 9.43164 75.4531 9.66602C75.9863 9.90039 76.4023 10.2549 76.7012 10.7295C77.0059 11.1982 77.1582 11.7871 77.1582 12.4961V16.9258C77.1582 17.2422 77.1846 17.5791 77.2373 17.9365C77.2959 18.2939 77.3809 18.6016 77.4922 18.8594V19H75.7959C75.7139 18.8125 75.6494 18.5635 75.6025 18.2529C75.5557 17.9365 75.5322 17.6436 75.5322 17.374ZM75.8135 13.2344L75.8311 14.377H74.1875C73.7246 14.377 73.3115 14.415 72.9482 14.4912C72.585 14.5615 72.2803 14.6699 72.0342 14.8164C71.7881 14.9629 71.6006 15.1475 71.4717 15.3701C71.3428 15.5869 71.2783 15.8418 71.2783 16.1348C71.2783 16.4336 71.3457 16.7061 71.4805 16.9521C71.6152 17.1982 71.8174 17.3945 72.0869 17.541C72.3623 17.6816 72.6992 17.752 73.0977 17.752C73.5957 17.752 74.0352 17.6465 74.416 17.4355C74.7969 17.2246 75.0986 16.9668 75.3213 16.6621C75.5498 16.3574 75.6729 16.0615 75.6904 15.7744L76.3848 16.5566C76.3438 16.8027 76.2324 17.0752 76.0508 17.374C75.8691 17.6729 75.626 17.96 75.3213 18.2354C75.0225 18.5049 74.665 18.7305 74.249 18.9121C73.8389 19.0879 73.376 19.1758 72.8604 19.1758C72.2158 19.1758 71.6504 19.0498 71.1641 18.7979C70.6836 18.5459 70.3086 18.209 70.0391 17.7871C69.7754 17.3594 69.6436 16.8818 69.6436 16.3545C69.6436 15.8447 69.7432 15.3965 69.9424 15.0098C70.1416 14.6172 70.4287 14.292 70.8037 14.0342C71.1787 13.7705 71.6299 13.5713 72.1572 13.4365C72.6846 13.3018 73.2734 13.2344 73.9238 13.2344H75.8135ZM87.9863 17.8398C88.373 17.8398 88.7305 17.7607 89.0586 17.6025C89.3867 17.4443 89.6562 17.2275 89.8672 16.9521C90.0781 16.6709 90.1982 16.3516 90.2275 15.9941H91.7744C91.7451 16.5566 91.5547 17.0811 91.2031 17.5674C90.8574 18.0479 90.4033 18.4375 89.8408 18.7363C89.2783 19.0293 88.6602 19.1758 87.9863 19.1758C87.2715 19.1758 86.6475 19.0498 86.1143 18.7979C85.5869 18.5459 85.1475 18.2002 84.7959 17.7607C84.4502 17.3213 84.1895 16.8174 84.0137 16.249C83.8438 15.6748 83.7588 15.0684 83.7588 14.4297V14.0605C83.7588 13.4219 83.8438 12.8184 84.0137 12.25C84.1895 11.6758 84.4502 11.1689 84.7959 10.7295C85.1475 10.29 85.5869 9.94434 86.1143 9.69238C86.6475 9.44043 87.2715 9.31445 87.9863 9.31445C88.7305 9.31445 89.3809 9.4668 89.9375 9.77148C90.4941 10.0703 90.9307 10.4805 91.2471 11.002C91.5693 11.5176 91.7451 12.1035 91.7744 12.7598H90.2275C90.1982 12.3672 90.0869 12.0127 89.8936 11.6963C89.7061 11.3799 89.4482 11.1279 89.1201 10.9404C88.7979 10.7471 88.4199 10.6504 87.9863 10.6504C87.4883 10.6504 87.0693 10.75 86.7295 10.9492C86.3955 11.1426 86.1289 11.4062 85.9297 11.7402C85.7363 12.0684 85.5957 12.4346 85.5078 12.8389C85.4258 13.2373 85.3848 13.6445 85.3848 14.0605V14.4297C85.3848 14.8457 85.4258 15.2559 85.5078 15.6602C85.5898 16.0645 85.7275 16.4307 85.9209 16.7588C86.1201 17.0869 86.3867 17.3506 86.7207 17.5498C87.0605 17.7432 87.4824 17.8398 87.9863 17.8398ZM102.075 14.6934V16.0293H92.8291V15.0713L98.5596 6.20312H99.8867L98.4629 8.76953L94.6748 14.6934H102.075ZM100.291 6.20312V19H98.665V6.20312H100.291ZM108.896 6.13281V19H107.27V8.16309L103.991 9.3584V7.89062L108.641 6.13281H108.896ZM123.854 16.4775C123.854 16.2432 123.802 16.0264 123.696 15.8271C123.597 15.6221 123.389 15.4375 123.072 15.2734C122.762 15.1035 122.293 14.957 121.666 14.834C121.139 14.7227 120.661 14.5908 120.233 14.4385C119.812 14.2861 119.451 14.1016 119.152 13.8848C118.859 13.668 118.634 13.4131 118.476 13.1201C118.317 12.8271 118.238 12.4844 118.238 12.0918C118.238 11.7168 118.32 11.3623 118.484 11.0283C118.654 10.6943 118.892 10.3984 119.196 10.1406C119.507 9.88281 119.879 9.68066 120.312 9.53418C120.746 9.3877 121.229 9.31445 121.763 9.31445C122.524 9.31445 123.175 9.44922 123.714 9.71875C124.253 9.98828 124.666 10.3486 124.953 10.7998C125.24 11.2451 125.384 11.7402 125.384 12.2852H123.758C123.758 12.0215 123.679 11.7666 123.521 11.5205C123.368 11.2686 123.143 11.0605 122.844 10.8965C122.551 10.7324 122.19 10.6504 121.763 10.6504C121.312 10.6504 120.945 10.7207 120.664 10.8613C120.389 10.9961 120.187 11.1689 120.058 11.3799C119.935 11.5908 119.873 11.8135 119.873 12.0479C119.873 12.2236 119.902 12.3818 119.961 12.5225C120.025 12.6572 120.137 12.7832 120.295 12.9004C120.453 13.0117 120.676 13.1172 120.963 13.2168C121.25 13.3164 121.616 13.416 122.062 13.5156C122.841 13.6914 123.482 13.9023 123.986 14.1484C124.49 14.3945 124.865 14.6963 125.111 15.0537C125.357 15.4111 125.48 15.8447 125.48 16.3545C125.48 16.7705 125.393 17.1514 125.217 17.4971C125.047 17.8428 124.798 18.1416 124.47 18.3936C124.147 18.6396 123.761 18.833 123.31 18.9736C122.864 19.1084 122.363 19.1758 121.807 19.1758C120.969 19.1758 120.26 19.0264 119.68 18.7275C119.1 18.4287 118.66 18.042 118.361 17.5674C118.062 17.0928 117.913 16.5918 117.913 16.0645H119.548C119.571 16.5098 119.7 16.8643 119.935 17.1279C120.169 17.3857 120.456 17.5703 120.796 17.6816C121.136 17.7871 121.473 17.8398 121.807 17.8398C122.252 17.8398 122.624 17.7812 122.923 17.6641C123.228 17.5469 123.459 17.3857 123.617 17.1807C123.775 16.9756 123.854 16.7412 123.854 16.4775ZM131.598 9.49023V10.7383H126.456V9.49023H131.598ZM128.196 7.17871H129.822V16.6445C129.822 16.9668 129.872 17.21 129.972 17.374C130.071 17.5381 130.2 17.6465 130.358 17.6992C130.517 17.752 130.687 17.7783 130.868 17.7783C131.003 17.7783 131.144 17.7666 131.29 17.7432C131.442 17.7139 131.557 17.6904 131.633 17.6729L131.642 19C131.513 19.041 131.343 19.0791 131.132 19.1143C130.927 19.1553 130.678 19.1758 130.385 19.1758C129.986 19.1758 129.62 19.0967 129.286 18.9385C128.952 18.7803 128.686 18.5166 128.486 18.1475C128.293 17.7725 128.196 17.2686 128.196 16.6357V7.17871ZM139.323 16.8027V9.49023H140.958V19H139.402L139.323 16.8027ZM139.631 14.7988L140.308 14.7812C140.308 15.4141 140.24 16 140.105 16.5391C139.977 17.0723 139.766 17.5352 139.473 17.9277C139.18 18.3203 138.796 18.6279 138.321 18.8506C137.847 19.0674 137.27 19.1758 136.59 19.1758C136.127 19.1758 135.702 19.1084 135.315 18.9736C134.935 18.8389 134.606 18.6309 134.331 18.3496C134.056 18.0684 133.842 17.7021 133.689 17.251C133.543 16.7998 133.47 16.2578 133.47 15.625V9.49023H135.096V15.6426C135.096 16.0703 135.143 16.4248 135.236 16.7061C135.336 16.9814 135.468 17.2012 135.632 17.3652C135.802 17.5234 135.989 17.6348 136.194 17.6992C136.405 17.7637 136.622 17.7959 136.845 17.7959C137.536 17.7959 138.084 17.6641 138.488 17.4004C138.893 17.1309 139.183 16.7705 139.358 16.3193C139.54 15.8623 139.631 15.3555 139.631 14.7988ZM149.431 17.1543V5.5H151.065V19H149.571L149.431 17.1543ZM143.032 14.3506V14.166C143.032 13.4395 143.12 12.7803 143.296 12.1885C143.478 11.5908 143.732 11.0781 144.061 10.6504C144.395 10.2227 144.79 9.89453 145.247 9.66602C145.71 9.43164 146.226 9.31445 146.794 9.31445C147.392 9.31445 147.913 9.41992 148.358 9.63086C148.81 9.83594 149.19 10.1377 149.501 10.5361C149.817 10.9287 150.066 11.4033 150.248 11.96C150.43 12.5166 150.556 13.1465 150.626 13.8496V14.6582C150.562 15.3555 150.436 15.9824 150.248 16.5391C150.066 17.0957 149.817 17.5703 149.501 17.9629C149.19 18.3555 148.81 18.6572 148.358 18.8682C147.907 19.0732 147.38 19.1758 146.776 19.1758C146.22 19.1758 145.71 19.0557 145.247 18.8154C144.79 18.5752 144.395 18.2383 144.061 17.8047C143.732 17.3711 143.478 16.8613 143.296 16.2754C143.12 15.6836 143.032 15.042 143.032 14.3506ZM144.667 14.166V14.3506C144.667 14.8252 144.714 15.2705 144.808 15.6865C144.907 16.1025 145.06 16.4688 145.265 16.7852C145.47 17.1016 145.73 17.3506 146.047 17.5322C146.363 17.708 146.741 17.7959 147.181 17.7959C147.72 17.7959 148.162 17.6816 148.508 17.4531C148.859 17.2246 149.141 16.9229 149.352 16.5479C149.562 16.1729 149.727 15.7656 149.844 15.3262V13.208C149.773 12.8857 149.671 12.5752 149.536 12.2764C149.407 11.9717 149.237 11.7021 149.026 11.4678C148.821 11.2275 148.566 11.0371 148.262 10.8965C147.963 10.7559 147.608 10.6855 147.198 10.6855C146.753 10.6855 146.369 10.7793 146.047 10.9668C145.73 11.1484 145.47 11.4004 145.265 11.7227C145.06 12.0391 144.907 12.4082 144.808 12.8301C144.714 13.2461 144.667 13.6914 144.667 14.166ZM155.363 9.49023V19H153.729V9.49023H155.363ZM153.605 6.96777C153.605 6.7041 153.685 6.48145 153.843 6.2998C154.007 6.11816 154.247 6.02734 154.563 6.02734C154.874 6.02734 155.111 6.11816 155.275 6.2998C155.445 6.48145 155.53 6.7041 155.53 6.96777C155.53 7.21973 155.445 7.43652 155.275 7.61816C155.111 7.79395 154.874 7.88184 154.563 7.88184C154.247 7.88184 154.007 7.79395 153.843 7.61816C153.685 7.43652 153.605 7.21973 153.605 6.96777ZM157.543 14.3506V14.1484C157.543 13.4629 157.643 12.8271 157.842 12.2412C158.041 11.6494 158.328 11.1367 158.703 10.7031C159.078 10.2637 159.532 9.92383 160.065 9.68359C160.599 9.4375 161.196 9.31445 161.858 9.31445C162.526 9.31445 163.127 9.4375 163.66 9.68359C164.199 9.92383 164.656 10.2637 165.031 10.7031C165.412 11.1367 165.702 11.6494 165.901 12.2412C166.101 12.8271 166.2 13.4629 166.2 14.1484V14.3506C166.2 15.0361 166.101 15.6719 165.901 16.2578C165.702 16.8438 165.412 17.3564 165.031 17.7959C164.656 18.2295 164.202 18.5693 163.669 18.8154C163.142 19.0557 162.544 19.1758 161.876 19.1758C161.208 19.1758 160.607 19.0557 160.074 18.8154C159.541 18.5693 159.084 18.2295 158.703 17.7959C158.328 17.3564 158.041 16.8438 157.842 16.2578C157.643 15.6719 157.543 15.0361 157.543 14.3506ZM159.169 14.1484V14.3506C159.169 14.8252 159.225 15.2734 159.336 15.6953C159.447 16.1113 159.614 16.4805 159.837 16.8027C160.065 17.125 160.35 17.3799 160.689 17.5674C161.029 17.749 161.425 17.8398 161.876 17.8398C162.321 17.8398 162.711 17.749 163.045 17.5674C163.385 17.3799 163.666 17.125 163.889 16.8027C164.111 16.4805 164.278 16.1113 164.39 15.6953C164.507 15.2734 164.565 14.8252 164.565 14.3506V14.1484C164.565 13.6797 164.507 13.2373 164.39 12.8213C164.278 12.3994 164.108 12.0273 163.88 11.7051C163.657 11.377 163.376 11.1191 163.036 10.9316C162.702 10.7441 162.31 10.6504 161.858 10.6504C161.413 10.6504 161.021 10.7441 160.681 10.9316C160.347 11.1191 160.065 11.377 159.837 11.7051C159.614 12.0273 159.447 12.3994 159.336 12.8213C159.225 13.2373 159.169 13.6797 159.169 14.1484Z" fill="#FFF5C4"/>
</svg>
